# xmcd CD database file
#
# Track frame offsets:
#	150
#	21733
#	42223
#	62600
#	83630
#	105200
#	137123
#
# Disc length: 4440 seconds
#
# Revision: 4
# Processed by: cddbd v1.5.2PL0 Copyright (c) Steve Scherf et al.
# Submitted via: CDex 1.70beta3
#
DISCID=53115607
DTITLE=倖田來未 - 夢のうた - ふたりで…
DYEAR=2006
DGENRE=J-Pop
TTITLE0=夢のうた
TTITLE1=ふたりで…
TTITLE2=夢のうた ～Quartet version～ (Bonus track)
TTITLE3=ふたりで… ～WHOOSH MIX～ (Bonus track)
TTITLE4=夢のうた (Instrumental)
TTITLE5=ふたりで… (Intrumental)
TTITLE6=CCCD
EXTD=YEAR: 2006
EXTT0=
EXTT1=
EXTT2=
EXTT3=
EXTT4=
EXTT5=
EXTT6=
PLAYORDER=
